#!OML:ASF I:\Random Stuff\random\construction\7_22_03\Session 2\subj1.ASF
:FULLY-SPECIFIED
:DEGREES
689
root -9.83464 17.7207 -5.84225 -381.76 79.8046 -403.418
lowerback 16.9873 0.509413 -0.127534
upperback 8.23935 1.03709 -4.19924
thorax -0.642844 0.800725 -4.54184
lowerneck -13.0428 0.307867 0.869614
upperneck 42.438 5.11474 -5.14168
head 18.3084 1.99273 -1.46993
rclavicle 7.95139e-015 7.95139e-015
rhumerus -21.5647 13.9379 -94.5596
rradius 101.125
rwrist -19.8439
rhand -36.9889 11.9264
rfingers 7.12502
rthumb -10.064 -17.813
lclavicle 7.95139e-015 7.95139e-015
lhumerus 19.7497 -32.327 76.5324
lradius 38.6866
lwrist -22.2791
lhand -43.6879 79.2172
lfingers 7.12502
lthumb -16.5207 -468.534
rfemur -21.4104 4.65518 19.9944
rtibia 3.64699
rfoot -3.00936 -7.66822
rtoes -17.8716
lfemur -33.7955 -4.36522 -5.00186
ltibia 29.8549
lfoot -17.7576 9.06127
ltoes -27.5147
690
root -9.83211 17.7185 -5.83226 -383.916 80.3499 -405.67
lowerback 16.9549 0.273086 -0.0524743
upperback 8.31678 0.751873 -4.07287
thorax -0.567895 0.661889 -4.39915
lowerneck -13.1238 0.477639 0.700789
upperneck 42.2717 5.57315 -5.50445
head 18.2759 2.09918 -1.52059
rclavicle -2.22639e-014 2.38542e-014
rhumerus -24.6094 13.2853 -94.7508
rradius 104.196
rwrist -20.2595
rhand -36.3825 11.2449
rfingers 7.12502
rthumb -9.4789 -18.522
lclavicle -2.22639e-014 2.38542e-014
lhumerus 19.9389 -32.169 76.6496
lradius 38.6389
lwrist -22.433
lhand -43.3288 78.9647
lfingers 7.12502
lthumb -16.175 -468.31
rfemur -21.9477 3.98441 20.192
rtibia 4.76182
rfoot -3.6319 -7.68161
rtoes -17.3055
lfemur -34.1911 -4.68563 -4.92409
ltibia 29.9746
lfoot -17.7909 8.8172
ltoes -27.2047
691
root -9.83398 17.7142 -5.81983 -386.309 80.6682 -408.031
lowerback 17.0001 0.0554549 -0.0523095
upperback 8.44349 0.484291 -3.92926
thorax -0.479284 0.5315 -4.20008
lowerneck -13.2529 0.672867 0.602672
upperneck 42.1034 6.00383 -5.79853
head 18.2535 2.21073 -1.55677
rclavicle -2.70347e-014 1.11319e-014
rhumerus -26.7609 13.2134 -94.696
rradius 106.367
rwrist -19.9943
rhand -36.9159 10.3378
rfingers 7.12502
rthumb -9.99347 -19.405
lclavicle -2.70347e-014 1.11319e-014
lhumerus 20.1124 -31.8758 76.5524
lradius 38.697
lwrist -22.5862
lhand -42.9489 79.2108
lfingers 7.12502
lthumb -15.8091 -468.585
rfemur -22.2109 3.52623 20.4916
rtibia 5.54862
rfoot -4.11168 -7.66841
rtoes -16.5937
lfemur -34.4066 -4.7617 -4.78482
ltibia 30.1286
lfoot -17.8931 8.48152
ltoes -26.6805
692
root -9.8403 17.7071 -5.80774 -388.784 80.7835 -410.412
lowerback 17.065 -0.141162 0.0369575
upperback 8.57473 0.25631 -3.83109
thorax -0.390539 0.424615 -4.10772
lowerneck -13.2765 0.805811 0.498648
upperneck 41.9877 6.27413 -5.92733
head 18.2136 2.28085 -1.54595
rclavicle -1.90833e-014 -1.90833e-014
rhumerus -27.8741 13.6603 -94.5103
rradius 107.686
rwrist -20.171
rhand -36.2797 10.0435
rfingers 7.12502
rthumb -9.37967 -19.7278
lclavicle -1.90833e-014 -1.90833e-014
lhumerus 20.3383 -31.6976 76.1826
lradius 38.7646
lwrist -22.7093
lhand -42.7883 79.8757
lfingers 7.12502
lthumb -15.6545 -469.262
rfemur -22.2997 3.2447 20.8653
rtibia 6.04208
rfoot -4.42732 -7.66008
rtoes -16.1463
lfemur -34.5046 -4.69999 -4.55619
ltibia 30.2858
lfoot -17.9959 8.17028
ltoes -26.1657
693
root -9.84802 17.7034 -5.79976 -390.138 80.8074 -411.639
lowerback 17.1734 -0.292234 0.0830049
upperback 8.64573 0.0740378 -3.85179
thorax -0.383951 0.339821 -4.12624
lowerneck -13.1374 0.905432 0.538653
upperneck 41.9311 6.4397 -6.00868
head 18.1593 2.34331 -1.56175
rclavicle -3.81667e-014 -2.70347e-014
rhumerus -27.6868 14.526 -94.2277
rradius 108.002
rwrist -20.5958
rhand -35.4888 9.64411
rfingers 7.12502
rthumb -8.61648 -20.1601
lclavicle -3.81667e-014 -2.70347e-014
lhumerus 20.552 -31.7086 75.6622
lradius 38.7747
lwrist -22.7143
lhand -42.9368 80.1734
lfingers 7.12502
lthumb -15.7975 -469.549
rfemur -22.2722 3.10967 21.0712
rtibia 6.27747
rfoot -4.5751 -7.66394
rtoes -15.8333
lfemur -34.5083 -4.58529 -4.4535
ltibia 30.4388
lfoot -18.0333 7.97664
ltoes -26.4944
694
root -9.85959 17.7011 -5.79559 -389.994 80.7455 -411.355
lowerback 17.3385 -0.32585 -0.00101892
upperback 8.65239 0.0179908 -3.94565
thorax -0.465696 0.313085 -4.17112
lowerneck -12.9294 0.915309 0.590699
upperneck 41.9253 6.43613 -6.00172
head 18.0998 2.35521 -1.57132
rclavicle -1.11319e-014 1.90833e-014
rhumerus -26.1708 15.5859 -93.7601
rradius 107.161
rwrist -20.4301
rhand -36.078 10.7102
rfingers 7.12502
rthumb -9.18504 -19.0697
lclavicle -1.11319e-014 1.90833e-014
lhumerus 20.6579 -31.8011 75.2648
lradius 38.8304
lwrist -22.6381
lhand -43.2019 79.842
lfingers 7.12502
lthumb -16.0528 -469.197
rfemur -22.2129 3.1546 21.0756
rtibia 6.34338
rfoot -4.55967 -7.64039
rtoes -15.621
lfemur -34.4376 -4.37376 -4.51028
ltibia 30.5699
lfoot -18.0406 7.82
ltoes -26.8096
695
root -9.87589 17.6978 -5.79357 -388.619 80.5331 -409.81
lowerback 17.5357 -0.20723 -0.207037
upperback 8.64644 0.13944 -4.06069
thorax -0.564127 0.371234 -4.20073
lowerneck -12.7142 0.830932 0.575818
upperneck 41.9646 6.27734 -5.89742
head 18.0465 2.30889 -1.55224
rclavicle -3.49861e-014 -7.63333e-014
rhumerus -23.5728 16.572 -93.1696
rradius 105.303
rwrist -19.7482
rhand -35.3165 8.27894
rfingers 7.12502
rthumb -8.45022 -21.532
lclavicle -3.49861e-014 -7.63333e-014
lhumerus 20.7562 -31.8598 75.0448
lradius 38.921
lwrist -22.5642
lhand -43.2664 79.5434
lfingers 7.12502
lthumb -16.1149 -468.893
rfemur -22.1241 3.42734 20.9647
rtibia 6.29224
rfoot -4.43353 -7.59763
rtoes -15.7303
lfemur -34.2575 -4.0526 -4.6446
ltibia 30.6707
lfoot -18.0835 7.75841
ltoes -26.8628
696
root -9.89454 17.6945 -5.79185 -386.611 80.081 -407.579
lowerback 17.7729 0.060916 -0.410845
upperback 8.62424 0.451069 -4.18349
thorax -0.686588 0.523341 -4.27591
lowerneck -12.5178 0.694094 0.552442
upperneck 42.0922 6.0598 -5.7758
head 18.047 2.24154 -1.53521
rclavicle 1.11319e-014 -2.22639e-014
rhumerus -20.1884 17.2781 -92.5929
rradius 102.07
rwrist -19.2264
rhand -36.3194 10.1537
rfingers 7.12502
rthumb -9.41802 -19.6159
lclavicle 1.11319e-014 -2.22639e-014
lhumerus 20.8676 -31.9657 74.9764
lradius 38.9711
lwrist -22.587
lhand -43.1427 79.5981
lfingers 7.12502
lthumb -15.9957 -468.958
rfemur -21.9789 3.9693 20.8565
rtibia 6.14097
rfoot -4.27174 -7.57372
rtoes -15.9499
lfemur -33.9161 -3.67924 -4.71258
ltibia 30.7583
lfoot -18.1567 7.87445
ltoes -26.8965
697
root -9.91526 17.6935 -5.79122 -384.397 79.47 -405.222
lowerback 17.9372 0.409557 -0.509954
upperback 8.53283 0.87341 -4.33251
thorax -0.835609 0.730205 -4.46052
lowerneck -12.3641 0.52322 0.468326
upperneck 42.3045 5.80392 -5.58673
head 18.103 2.15854 -1.48289
rclavicle 0 3.18055e-014
rhumerus -16.3104 17.6171 -92.1791
rradius 97.9698
rwrist -19.2449
rhand -36.982 10.0094
rfingers 7.12502
rthumb -10.0572 -19.7303
lclavicle 0 3.18055e-014
lhumerus 20.9367 -32.2584 74.9176
lradius 39.0242
lwrist -22.6253
lhand -43.022 79.6161
lfingers 7.12502
lthumb -15.8796 -468.985
rfemur -21.9451 4.67177 20.7597
rtibia 5.94788
rfoot -4.0652 -7.56443
rtoes -16.3633
lfemur -33.6189 -3.25396 -4.71551
ltibia 30.8431
lfoot -18.2399 8.06816
ltoes -27.0252
698
root -9.93576 17.6941 -5.79133 -381.981 78.8503 -402.776
lowerback 18.0389 0.784807 -0.581498
upperback 8.36889 1.3258 -4.50761
thorax -1.02478 0.9496 -4.69633
lowerneck -12.2635 0.351794 0.329831
upperneck 42.5393 5.5634 -5.37676
head 18.1875 2.07573 -1.4069
rclavicle -2.8625e-014 5.725e-014
rhumerus -12.2551 17.4176 -92.0242
rradius 93.2161
rwrist -19.0893
rhand -38.1564 11.6973
rfingers 7.12502
rthumb -11.1901 -17.9843
lclavicle -2.8625e-014 5.725e-014
lhumerus 21.087 -32.8068 74.7103
lradius 39.038
lwrist -22.5558
lhand -42.8677 79.4209
lfingers 7.12502
lthumb -15.731 -468.802
rfemur -22.0217 5.39461 20.5874
rtibia 5.70537
rfoot -3.80841 -7.52398
rtoes -17.1035
lfemur -33.4418 -2.76711 -4.79271
ltibia 30.9318
lfoot -18.3106 8.3007
ltoes -27.302
699
root -9.95354 17.6913 -5.79019 -379.581 78.229 -400.35
lowerback 18.1778 1.16783 -0.676679
upperback 8.18813 1.78122 -4.68029
thorax -1.24922 1.16888 -4.92134
lowerneck -12.2404 0.224872 0.227369
upperneck 42.7233 5.41431 -5.26974
head 18.2767 2.02051 -1.36701
rclavicle 1.59028e-014 -2.54444e-014
rhumerus -8.28042 16.6631 -92.1426
rradius 88.5223
rwrist -18.5693
rhand -39.5651 13.1361
rfingers 7.12502
rthumb -12.5485 -16.4671
lclavicle 1.59028e-014 -2.54444e-014
lhumerus 21.3172 -33.566 74.2965
lradius 39.1338
lwrist -22.3098
lhand -42.648 79.4767
lfingers 7.12502
lthumb -15.5194 -468.874
rfemur -22.0639 6.11806 20.3584
rtibia 5.39141
rfoot -3.52535 -7.45632
rtoes -17.6911
lfemur -33.2463 -2.2725 -4.92733
ltibia 31.0375
lfoot -18.3821 8.60103
ltoes -27.6545
700
root -9.97175 17.6869 -5.78745 -377.784 77.6294 -398.531
lowerback 18.2948 1.51504 -0.698532
upperback 8.02989 2.20429 -4.81543
thorax -1.43811 1.37356 -5.14347
lowerneck -12.2204 0.145324 0.255882
upperneck 42.8123 5.34324 -5.32007
head 18.3259 1.99708 -1.40934
rclavicle 1.59028e-015 -4.45278e-014
rhumerus -4.74192 15.4569 -92.5141
rradius 84.6465
rwrist -18.3585
rhand -40.7114 14.0086
rfingers 7.12502
rthumb -13.6535 -15.5236
lclavicle 1.59028e-015 -4.45278e-014
lhumerus 21.5864 -34.4899 73.6461
lradius 39.3759
lwrist -21.7493
lhand -42.4209 79.7523
lfingers 7.12502
lthumb -15.3006 -469.166
rfemur -22.1439 6.78298 20.2024
rtibia 5.17005
rfoot -3.31701 -7.39749
rtoes -17.6796
lfemur -33.0791 -1.76031 -5.00844
ltibia 31.1575
lfoot -18.3764 8.83195
ltoes -28.277
701
root -9.99138 17.6839 -5.78313 -376.891 77.1053 -397.66
lowerback 18.3604 1.81272 -0.580714
upperback 7.88028 2.58808 -4.89179
thorax -1.58981 1.56015 -5.374
lowerneck -12.141 0.0650021 0.477398
upperneck 42.8548 5.2699 -5.52913
head 18.3432 1.9858 -1.56239
rclavicle 5.725e-014 2.54444e-014
rhumerus -1.84438 13.9659 -93.0677
rradius 81.7717
rwrist -18.6009
rhand -40.9718 13.7677
rfingers 7.12502
rthumb -13.9044 -15.7475
lclavicle 5.725e-014 2.54444e-014
lhumerus 21.9679 -35.5113 72.8733
lradius 39.4846
lwrist -21.0528
lhand -42.3126 80.1092
lfingers 7.12502
lthumb -15.1963 -469.531
rfemur -22.36 7.32507 20.2159
rtibia 5.20432
rfoot -3.2237 -7.35305
rtoes -17.6584
lfemur -33.0288 -1.18603 -4.97797
ltibia 31.2794
lfoot -18.2997 8.89671
ltoes -29.2237
702
root -10.0096 17.6825 -5.77562 -376.293 76.7796 -397.23
lowerback 18.2646 2.05323 -0.476521
upperback 7.70408 2.89748 -4.95236
thorax -1.69239 1.70772 -5.55803
lowerneck -12.0492 -0.0326966 0.84467
upperneck 42.932 5.13788 -5.75683
head 18.3778 1.97317 -1.76332
rclavicle 1.59028e-015 -9.54166e-015
rhumerus -0.572288 12.3812 -93.7334
rradius 81.1505
rwrist -19.1998
rhand -39.847 12.4348
rfingers 7.12502
rthumb -12.8203 -17.1515
lclavicle 1.59028e-015 -9.54166e-015
lhumerus 22.4174 -36.5397 72.125
lradius 39.401
lwrist -20.4737
lhand -42.369 80.7387
lfingers 7.12502
lthumb -15.2506 -470.157
rfemur -22.7321 7.65733 20.2533
rtibia 5.33821
rfoot -3.14713 -7.32106
rtoes -17.774
lfemur -33.2014 -0.644974 -4.95596
ltibia 31.3782
lfoot -18.1909 8.81733
ltoes -29.9551
703
root -10.0253 17.6824 -5.76241 -375.839 76.7282 -396.961
lowerback 18.1411 2.19641 -0.560044
upperback 7.5298 3.05291 -4.98565
thorax -1.80303 1.77475 -5.57421
lowerneck -11.9453 -0.131756 1.20207
upperneck 43.0932 4.94793 -5.82249
head 18.4466 1.95583 -1.89927
rclavicle -4.6118e-014 7.79236e-014
rhumerus -0.747758 11.4375 -94.1286
rradius 81.9064
rwrist -19.4671
rhand -38.3162 10.3564
rfingers 7.12502
rthumb -11.3442 -19.3168
lclavicle -4.6118e-014 7.79236e-014
lhumerus 22.7776 -37.4017 71.5136
lradius 39.2415
lwrist -20.056
lhand -42.3091 81.3087
lfingers 7.12502
lthumb -15.1929 -470.731
rfemur -23.0967 7.72172 20.254
rtibia 5.54846
rfoot -3.17191 -7.3193
rtoes -17.5893
lfemur -33.4433 -0.317062 -4.99065
ltibia 31.4222
lfoot -18.0801 8.65034
ltoes -30.2421
